HIERARCHY
ROOT Hips
{
	OFFSET 0.000000 0.000000 0.000000
	CHANNELS 6 Xposition Yposition Zposition Xrotation Yrotation Zrotation
	JOINT LeftUpLeg_virtual
	{
		OFFSET 0.000000 0.000000 0.000000
		CHANNELS 3 Xrotation Yrotation Zrotation
		JOINT LeftUpLeg
		{
			OFFSET 10.205400 -3.823500 0.155100
			CHANNELS 3 Xrotation Yrotation Zrotation
			JOINT LeftLeg
			{
				OFFSET 0.708757 -12.982077 0.567790
				CHANNELS 3 Xrotation Yrotation Zrotation
				JOINT LeftFoot
				{
					OFFSET -0.708756 -10.717838 -2.184338
					CHANNELS 3 Xrotation Yrotation Zrotation
					JOINT LeftToeBase
					{
						OFFSET 0.108149 -7.191104 7.560241
						CHANNELS 3 Xrotation Yrotation Zrotation
						JOINT LeftToe_End
						{
							OFFSET 0.070230 0.081724 4.490308
							CHANNELS 3 Xrotation Yrotation Zrotation
							End Site
							{
								OFFSET 0 0 0
							}
						}
					}
				}
			}
		}
	}
	JOINT RightUpLeg_virtual
	{
		OFFSET 0.000000 0.000000 0.000000
		CHANNELS 3 Xrotation Yrotation Zrotation
		JOINT RightUpLeg
		{
			OFFSET -10.205400 -3.823500 0.005500
			CHANNELS 3 Xrotation Yrotation Zrotation
			JOINT RightLeg
			{
				OFFSET -0.708756 -12.982134 0.610632
				CHANNELS 3 Xrotation Yrotation Zrotation
				JOINT RightFoot
				{
					OFFSET 0.708754 -10.717769 -1.945823
					CHANNELS 3 Xrotation Yrotation Zrotation
					JOINT RightToeBase
					{
						OFFSET -0.108140 -7.191069 7.372968
						CHANNELS 3 Xrotation Yrotation Zrotation
						JOINT RightToe_End
						{
							OFFSET -0.070227 0.081735 4.479403
							CHANNELS 3 Xrotation Yrotation Zrotation
							End Site
							{
								OFFSET 0 0 0
							}
						}
					}
				}
			}
		}
	}
	JOINT Spine_virtual
	{
		OFFSET 0.000000 0.000000 0.000000
		CHANNELS 3 Xrotation Yrotation Zrotation
		JOINT Spine
		{
			OFFSET 0.000000 6.876099 0.125700
			CHANNELS 3 Xrotation Yrotation Zrotation
			JOINT Spine1
			{
				OFFSET 0.000000 5.730043 0.104720
				CHANNELS 3 Xrotation Yrotation Zrotation
				JOINT Spine1_split
				{
					OFFSET 0.000000 5.730043 0.104720
					CHANNELS 3 Xrotation Yrotation Zrotation
					JOINT Spine2
					{
						OFFSET 0.000000 5.730043 0.104720
						CHANNELS 3 Xrotation Yrotation Zrotation
						JOINT Neck_virtual
						{
							OFFSET 0.000000 0.000000 0.000000
							CHANNELS 3 Xrotation Yrotation Zrotation
							JOINT Neck
							{
								OFFSET 0.000000 10.314075 0.188496
								CHANNELS 3 Xrotation Yrotation Zrotation
								JOINT Head
								{
									OFFSET 0.000000 7.643700 -2.377400
									CHANNELS 3 Xrotation Yrotation Zrotation
									JOINT HeadTop_End
									{
										OFFSET 0.000000 43.788605 -13.619600
										CHANNELS 3 Xrotation Yrotation Zrotation
										End Site
										{
											OFFSET 0 0 0
										}
									}
								}
							}
						}
						JOINT LeftShoulder_virtual
						{
							OFFSET 0.000000 0.000000 0.000000
							CHANNELS 3 Xrotation Yrotation Zrotation
							JOINT LeftShoulder
							{
								OFFSET 2.196100 4.412489 0.087492
								CHANNELS 3 Xrotation Yrotation Zrotation
								JOINT LeftShoulder_split
								{
									OFFSET 2.196100 4.412489 0.087492
									CHANNELS 3 Xrotation Yrotation Zrotation
									JOINT LeftArm
									{
										OFFSET 8.771219 -2.981674 -0.026999
										CHANNELS 3 Xrotation Yrotation Zrotation
										JOINT LeftForeArm
										{
											OFFSET 8.512804 0.000000 -0.000000
											CHANNELS 3 Xrotation Yrotation Zrotation
											JOINT LeftHand
											{
												OFFSET 18.484802 0.000000 -0.000000
												CHANNELS 3 Xrotation Yrotation Zrotation
												End Site
												{
													OFFSET 0 0 0
												}
											}
										}
									}
								}
							}
						}
						JOINT RightShoulder_virtual
						{
							OFFSET 0.000000 0.000000 0.000000
							CHANNELS 3 Xrotation Yrotation Zrotation
							JOINT RightShoulder
							{
								OFFSET -2.196100 4.412496 0.070690
								CHANNELS 3 Xrotation Yrotation Zrotation
								JOINT RightShoulder_split
								{
									OFFSET -2.196100 4.412496 0.070690
									CHANNELS 3 Xrotation Yrotation Zrotation
									JOINT RightArm
									{
										OFFSET -8.771282 -2.981682 -0.094208
										CHANNELS 3 Xrotation Yrotation Zrotation
										JOINT RightForeArm
										{
											OFFSET -8.494598 0.000000 0.000000
											CHANNELS 3 Xrotation Yrotation Zrotation
											JOINT RightHand
											{
												OFFSET -18.483803 0.000000 0.000001
												CHANNELS 3 Xrotation Yrotation Zrotation
												End Site
												{
													OFFSET 0 0 0
												}
											}
										}
									}
								}
							}
						}
					}
				}
			}
		}
	}
}
MOTION
Frames: 7
Frame Time: 0.03333333
-0.068758 32.016399 1.189375 0.000000 0.000000 0.000000 -5.621812 -44.307502 -5.332385 -26.220172 2.094202 17.229844 35.203802 -16.074432 -1.919091 -16.941123 2.176250 -5.219982 0.615660 -5.634083 -2.753697 0.000000 0.000000 0.000000 -7.480452 -41.764810 -5.311099 7.442896 -13.442384 -21.660777 22.357388 -11.462186 -2.307702 -30.186783 -4.972842 26.579242 0.154112 -0.297099 2.823417 0.000000 0.000000 0.000000 -4.917294 -44.264632 -4.394857 5.990669 5.743581 -0.750676 11.058686 9.333822 -3.396728 0.702518 -3.244289 0.932125 0.000000 0.000000 0.000000 11.552543 9.076487 -3.502159 -4.705361 -2.943419 -0.155522 -3.906606 23.695251 -1.324731 0.000000 0.000000 0.000000 11.924702 9.199544 -3.251965 2.059384 0.165612 -7.640170 -3.733844 -2.441914 -0.732795 -13.610824 5.246337 -61.981658 10.344279 -46.171966 6.422231 0.000000 0.000000 0.000000 11.507538 9.199706 -3.229017 2.812839 7.198558 9.643268 -0.679050 3.397928 1.146042 -0.637165 -24.854133 62.540593 -3.141065 44.293831 5.766265 0.000000 0.000000 0.000000 
-0.183550 31.971279 1.193050 0.000000 0.000000 0.000000 -5.705737 -44.803521 -5.111977 -26.490523 1.599210 16.074992 35.586792 -14.872044 -1.719759 -17.109491 2.585715 -3.163697 -0.015334 -5.539403 -3.255805 0.000000 0.000000 0.000000 -7.350500 -41.880627 -5.094335 7.339256 -13.760460 -21.073169 23.859982 -12.166237 -2.284155 -31.601219 -5.652987 25.470919 1.679045 -0.008864 2.830265 0.000000 0.000000 0.000000 -5.266561 -44.034974 -4.589103 6.264487 5.759308 -0.831642 11.086579 9.273990 -3.441220 0.966705 -3.357579 1.126566 0.000000 0.000000 0.000000 11.422235 8.989101 -3.478237 -4.847445 -2.645989 -0.447136 -3.728526 23.683512 -1.297379 0.000000 0.000000 0.000000 11.879671 9.087726 -3.316129 2.136766 0.214137 -7.495478 -3.409013 -3.091716 -0.586969 -13.554625 4.994193 -61.715165 10.356936 -46.992743 6.459113 0.000000 0.000000 0.000000 11.593975 9.145915 -3.216125 2.898907 7.176312 9.853967 -0.606224 3.385773 0.893561 0.152918 -25.484880 62.456916 -2.751577 43.311172 5.602744 0.000000 0.000000 0.000000 
-0.242326 31.902130 1.048006 0.000000 0.000000 0.000000 -5.652660 -44.352851 -4.718387 -27.188500 0.584993 14.844486 36.638057 -14.125442 -1.177958 -15.833844 2.339854 -3.113273 -0.415569 -5.536391 -2.875585 0.000000 0.000000 0.000000 -7.236596 -41.700187 -4.712708 6.504471 -13.576834 -20.967844 27.039539 -12.674041 -2.249754 -31.468632 -6.134820 25.411350 0.032820 0.574825 3.110495 0.000000 0.000000 0.000000 -5.449799 -43.474144 -4.586983 6.710769 5.650212 -0.804045 11.065581 9.002200 -3.441101 1.112521 -3.057998 0.941649 0.000000 0.000000 0.000000 11.254484 8.727442 -3.457997 -5.339316 -2.236748 -0.778569 -3.365671 23.592527 -1.293871 0.000000 0.000000 0.000000 11.859959 8.799993 -3.329153 2.219242 0.135671 -7.469168 -3.172199 -3.698305 -0.508144 -13.266323 4.621756 -60.982169 10.549897 -47.746721 6.469991 0.000000 0.000000 0.000000 11.647192 8.916727 -3.183509 2.952275 7.110292 10.034514 -0.881105 3.668763 0.626497 1.124819 -25.682100 62.335394 -1.795291 42.753883 5.158915 0.000000 0.000000 0.000000 
-0.271066 31.828421 0.852303 0.000000 0.000000 0.000000 -5.411061 -43.293338 -4.250113 -28.308245 -0.555544 13.790014 37.723541 -13.574914 -0.571796 -13.499082 1.484669 -4.646467 -0.879285 -5.640261 -1.445630 0.000000 0.000000 0.000000 -7.008747 -41.058118 -4.215862 5.347160 -12.735674 -20.980138 30.525229 -12.995079 -2.486131 -30.131031 -6.413909 26.546560 -3.940156 1.376774 3.729258 0.000000 0.000000 0.000000 -5.469031 -42.679564 -4.420854 7.244438 5.451699 -0.666008 10.997353 8.576529 -3.415522 0.876481 -2.285860 0.654711 0.000000 0.000000 0.000000 11.083176 8.328666 -3.456450 -6.170797 -1.766039 -1.129178 -2.840248 23.331387 -1.264701 0.000000 0.000000 0.000000 11.869883 8.375240 -3.322636 2.295695 -0.030462 -7.601976 -3.233753 -4.092923 -0.605749 -12.746916 4.133953 -59.814057 10.853864 -48.174629 6.423783 0.000000 0.000000 0.000000 11.705880 8.549645 -3.151569 2.985648 7.011663 10.152210 -1.329166 4.095867 0.379128 2.196289 -25.080142 62.305593 -0.351725 42.601181 4.462561 0.000000 0.000000 0.000000 
-0.249809 31.710796 0.641687 0.000000 0.000000 0.000000 -4.865370 -41.795563 -3.713265 -29.851659 -1.385925 12.943252 38.437122 -12.603085 -0.077724 -11.039593 0.399945 -6.399048 -1.435253 -5.855693 0.762639 0.000000 0.000000 0.000000 -6.272723 -39.796606 -3.573061 4.280180 -11.333656 -20.579061 33.108871 -13.786282 -3.217871 -28.657998 -6.652440 27.975362 -7.377426 2.532492 4.541545 0.000000 0.000000 0.000000 -5.239630 -41.669208 -4.153088 7.736791 5.199754 -0.455311 10.921309 8.070265 -3.382972 0.638181 -1.390384 0.457867 0.000000 0.000000 0.000000 10.933182 7.856243 -3.483867 -7.340989 -1.302407 -1.491984 -2.223819 22.797580 -1.176553 0.000000 0.000000 0.000000 11.915124 7.881512 -3.326615 2.332225 -0.277964 -7.835153 -3.511848 -4.468778 -0.914326 -12.167064 3.420763 -58.228578 11.234987 -48.113895 6.328631 0.000000 0.000000 0.000000 11.801576 8.129410 -3.138227 2.989470 6.921520 10.199398 -1.677561 4.497932 0.192447 3.139243 -23.743346 62.401981 1.456448 42.445985 3.540808 0.000000 0.000000 0.000000 
-0.203305 31.532494 0.559505 0.000000 0.000000 0.000000 -3.945471 -40.016337 -3.117648 -31.481974 -1.502541 12.279026 38.744224 -10.758551 0.218515 -9.162300 -0.408251 -7.323080 -1.723916 -6.125006 3.058013 0.000000 0.000000 0.000000 -4.911260 -37.780484 -2.782784 3.655719 -9.814061 -19.448953 33.911466 -15.359748 -4.397093 -27.979305 -7.019293 28.867211 -8.731452 4.211145 5.275551 0.000000 0.000000 0.000000 -4.644795 -40.312610 -3.752272 8.080670 4.919515 -0.253531 10.848727 7.550646 -3.367211 0.541795 -0.794042 0.310688 0.000000 0.000000 0.000000 10.827473 7.382745 -3.519190 -8.874181 -0.901928 -1.857214 -1.588234 21.955848 -1.010691 0.000000 0.000000 0.000000 11.969460 7.384527 -3.357883 2.306942 -0.619602 -8.090632 -3.745852 -4.864689 -1.352611 -11.798835 2.415443 -56.311334 11.704076 -47.422943 6.215671 0.000000 0.000000 0.000000 11.948138 7.720095 -3.140436 2.934239 6.891736 10.167758 -1.922287 4.570451 0.131034 3.604191 -21.762601 62.503471 3.401701 41.935125 2.464078 0.000000 0.000000 0.000000 
-0.189926 31.319191 0.624582 0.000000 0.000000 0.000000 -2.557687 -38.187362 -2.476699 -33.074689 -0.985187 11.663434 39.127295 -7.970412 0.415738 -7.914086 -0.552915 -7.182252 -1.643764 -6.280185 4.838330 0.000000 0.000000 0.000000 -3.027077 -35.134165 -1.948694 3.571645 -8.737720 -17.642457 33.426580 -17.598961 -5.851679 -28.007852 -7.476750 29.025043 -8.368873 6.520419 5.598784 0.000000 0.000000 0.000000 -3.718365 -38.586942 -3.217377 8.191344 4.659158 -0.111822 10.772056 7.082869 -3.356847 0.441389 -0.545161 0.291644 0.000000 0.000000 0.000000 10.753121 6.964839 -3.523149 -10.751403 -0.574473 -2.281055 -1.051684 20.834189 -0.756397 0.000000 0.000000 0.000000 11.977053 6.955792 -3.409683 2.209394 -1.082253 -8.365384 -3.909406 -5.132049 -1.671317 -12.102120 1.073126 -54.151710 12.395455 -46.179449 6.187655 0.000000 0.000000 0.000000 12.136018 7.363222 -3.149615 2.848836 6.977384 10.019508 -2.047976 4.358374 0.080552 3.296220 -19.297950 62.601846 5.151079 41.202590 1.397410 0.000000 0.000000 0.000000 
